<?xml version="1.0" encoding="UTF-8" standalone="no"?>
<!DOCTYPE svg PUBLIC "-//W3C//DTD SVG 1.1//EN"
 "http://www.w3.org/Graphics/SVG/1.1/DTD/svg11.dtd">
<!-- Generated by graphviz version 2.50.0 (0)
 -->
<!-- Title: Tree Pages: 1 -->
<svg width="2481pt" height="477pt"
 viewBox="0.00 0.00 2481.00 477.00" xmlns="http://www.w3.org/2000/svg" xmlns:xlink="http://www.w3.org/1999/xlink">
<g id="graph0" class="graph" transform="scale(1 1) rotate(0) translate(4 473)">
<title>Tree</title>
<polygon fill="white" stroke="transparent" points="-4,4 -4,-473 2477,-473 2477,4 -4,4"/>
<!-- 0 -->
<g id="node1" class="node">
<title>0</title>
<polygon fill="#fdf6f2" stroke="black" points="1306,-469 1129,-469 1129,-401 1306,-401 1306,-469"/>
<text text-anchor="middle" x="1217.5" y="-453.8" font-family="Helvetica,sans-Serif" font-size="14.00">SMA/Close &lt;= 1.0</text>
<text text-anchor="middle" x="1217.5" y="-438.8" font-family="Helvetica,sans-Serif" font-size="14.00">gini = 0.499</text>
<text text-anchor="middle" x="1217.5" y="-423.8" font-family="Helvetica,sans-Serif" font-size="14.00">samples = 92700</text>
<text text-anchor="middle" x="1217.5" y="-408.8" font-family="Helvetica,sans-Serif" font-size="14.00">value = [47977.0, 44723.0]</text>
</g>
<!-- 1 -->
<g id="node2" class="node">
<title>1</title>
<polygon fill="#fcefe6" stroke="black" points="982,-365 805,-365 805,-297 982,-297 982,-365"/>
<text text-anchor="middle" x="893.5" y="-349.8" font-family="Helvetica,sans-Serif" font-size="14.00">pct_change &lt;= &#45;0.0</text>
<text text-anchor="middle" x="893.5" y="-334.8" font-family="Helvetica,sans-Serif" font-size="14.00">gini = 0.498</text>
<text text-anchor="middle" x="893.5" y="-319.8" font-family="Helvetica,sans-Serif" font-size="14.00">samples = 59130</text>
<text text-anchor="middle" x="893.5" y="-304.8" font-family="Helvetica,sans-Serif" font-size="14.00">value = [31593.0, 27537.0]</text>
</g>
<!-- 0&#45;&gt;1 -->
<g id="edge1" class="edge">
<title>0&#45;&gt;1</title>
<path fill="none" stroke="black" d="M1128.97,-406.13C1086.55,-392.78 1035.61,-376.74 991.98,-363"/>
<polygon fill="black" stroke="black" points="992.8,-359.59 982.21,-359.93 990.7,-366.27 992.8,-359.59"/>
<text text-anchor="middle" x="993.76" y="-378.4" font-family="Helvetica,sans-Serif" font-size="14.00">True</text>
</g>
<!-- 16 -->
<g id="node17" class="node">
<title>16</title>
<polygon fill="#f6fafe" stroke="black" points="1633,-365 1478,-365 1478,-297 1633,-297 1633,-365"/>
<text text-anchor="middle" x="1555.5" y="-349.8" font-family="Helvetica,sans-Serif" font-size="14.00">pct_change &lt;= &#45;0.001</text>
<text text-anchor="middle" x="1555.5" y="-334.8" font-family="Helvetica,sans-Serif" font-size="14.00">gini = 0.5</text>
<text text-anchor="middle" x="1555.5" y="-319.8" font-family="Helvetica,sans-Serif" font-size="14.00">samples = 33570</text>
<text text-anchor="middle" x="1555.5" y="-304.8" font-family="Helvetica,sans-Serif" font-size="14.00">value = [16384, 17186]</text>
</g>
<!-- 0&#45;&gt;16 -->
<g id="edge16" class="edge">
<title>0&#45;&gt;16</title>
<path fill="none" stroke="black" d="M1306.31,-407.2C1356.27,-392.12 1418.42,-373.37 1468.15,-358.36"/>
<polygon fill="black" stroke="black" points="1469.36,-361.65 1477.92,-355.41 1467.33,-354.95 1469.36,-361.65"/>
<text text-anchor="middle" x="1466.1" y="-373.74" font-family="Helvetica,sans-Serif" font-size="14.00">False</text>
</g>
<!-- 2 -->
<g id="node3" class="node">
<title>2</title>
<polygon fill="#fefbf9" stroke="black" points="527,-261 378,-261 378,-193 527,-193 527,-261"/>
<text text-anchor="middle" x="452.5" y="-245.8" font-family="Helvetica,sans-Serif" font-size="14.00">pct_change &lt;= &#45;0.001</text>
<text text-anchor="middle" x="452.5" y="-230.8" font-family="Helvetica,sans-Serif" font-size="14.00">gini = 0.5</text>
<text text-anchor="middle" x="452.5" y="-215.8" font-family="Helvetica,sans-Serif" font-size="14.00">samples = 14639</text>
<text text-anchor="middle" x="452.5" y="-200.8" font-family="Helvetica,sans-Serif" font-size="14.00">value = [7435, 7204]</text>
</g>
<!-- 1&#45;&gt;2 -->
<g id="edge2" class="edge">
<title>1&#45;&gt;2</title>
<path fill="none" stroke="black" d="M804.79,-309.48C726.8,-291.44 614.06,-265.37 537.27,-247.61"/>
<polygon fill="black" stroke="black" points="537.68,-244.11 527.15,-245.27 536.1,-250.93 537.68,-244.11"/>
</g>
<!-- 9 -->
<g id="node10" class="node">
<title>9</title>
<polygon fill="#fbebe0" stroke="black" points="971,-261 816,-261 816,-193 971,-193 971,-261"/>
<text text-anchor="middle" x="893.5" y="-245.8" font-family="Helvetica,sans-Serif" font-size="14.00">RSI &lt;= 45.337</text>
<text text-anchor="middle" x="893.5" y="-230.8" font-family="Helvetica,sans-Serif" font-size="14.00">gini = 0.496</text>
<text text-anchor="middle" x="893.5" y="-215.8" font-family="Helvetica,sans-Serif" font-size="14.00">samples = 44491</text>
<text text-anchor="middle" x="893.5" y="-200.8" font-family="Helvetica,sans-Serif" font-size="14.00">value = [24158, 20333]</text>
</g>
<!-- 1&#45;&gt;9 -->
<g id="edge9" class="edge">
<title>1&#45;&gt;9</title>
<path fill="none" stroke="black" d="M893.5,-296.88C893.5,-288.78 893.5,-279.98 893.5,-271.47"/>
<polygon fill="black" stroke="black" points="897,-271.3 893.5,-261.3 890,-271.3 897,-271.3"/>
</g>
<!-- 3 -->
<g id="node4" class="node">
<title>3</title>
<polygon fill="#cfe7f9" stroke="black" points="291,-157 142,-157 142,-89 291,-89 291,-157"/>
<text text-anchor="middle" x="216.5" y="-141.8" font-family="Helvetica,sans-Serif" font-size="14.00">pct_change &lt;= &#45;0.001</text>
<text text-anchor="middle" x="216.5" y="-126.8" font-family="Helvetica,sans-Serif" font-size="14.00">gini = 0.49</text>
<text text-anchor="middle" x="216.5" y="-111.8" font-family="Helvetica,sans-Serif" font-size="14.00">samples = 439</text>
<text text-anchor="middle" x="216.5" y="-96.8" font-family="Helvetica,sans-Serif" font-size="14.00">value = [189, 250]</text>
</g>
<!-- 2&#45;&gt;3 -->
<g id="edge3" class="edge">
<title>2&#45;&gt;3</title>
<path fill="none" stroke="black" d="M377.83,-193.73C353.17,-183.07 325.59,-171.15 300.3,-160.22"/>
<polygon fill="black" stroke="black" points="301.66,-156.99 291.09,-156.24 298.88,-163.42 301.66,-156.99"/>
</g>
<!-- 6 -->
<g id="node7" class="node">
<title>6</title>
<polygon fill="#fefaf7" stroke="black" points="533.5,-157 371.5,-157 371.5,-89 533.5,-89 533.5,-157"/>
<text text-anchor="middle" x="452.5" y="-141.8" font-family="Helvetica,sans-Serif" font-size="14.00">SMA/Close &lt;= 1.0</text>
<text text-anchor="middle" x="452.5" y="-126.8" font-family="Helvetica,sans-Serif" font-size="14.00">gini = 0.5</text>
<text text-anchor="middle" x="452.5" y="-111.8" font-family="Helvetica,sans-Serif" font-size="14.00">samples = 14200</text>
<text text-anchor="middle" x="452.5" y="-96.8" font-family="Helvetica,sans-Serif" font-size="14.00">value = [7246.0, 6954.0]</text>
</g>
<!-- 2&#45;&gt;6 -->
<g id="edge6" class="edge">
<title>2&#45;&gt;6</title>
<path fill="none" stroke="black" d="M452.5,-192.88C452.5,-184.78 452.5,-175.98 452.5,-167.47"/>
<polygon fill="black" stroke="black" points="456,-167.3 452.5,-157.3 449,-167.3 456,-167.3"/>
</g>
<!-- 4 -->
<g id="node5" class="node">
<title>4</title>
<polygon fill="#d9ecfa" stroke="black" points="147,-53 0,-53 0,0 147,0 147,-53"/>
<text text-anchor="middle" x="73.5" y="-37.8" font-family="Helvetica,sans-Serif" font-size="14.00">gini = 0.494</text>
<text text-anchor="middle" x="73.5" y="-22.8" font-family="Helvetica,sans-Serif" font-size="14.00">samples = 418</text>
<text text-anchor="middle" x="73.5" y="-7.8" font-family="Helvetica,sans-Serif" font-size="14.00">value = [187.0, 231.0]</text>
</g>
<!-- 3&#45;&gt;4 -->
<g id="edge4" class="edge">
<title>3&#45;&gt;4</title>
<path fill="none" stroke="black" d="M166.49,-88.95C151.67,-79.16 135.51,-68.48 120.87,-58.8"/>
<polygon fill="black" stroke="black" points="122.72,-55.83 112.45,-53.24 118.86,-61.67 122.72,-55.83"/>
</g>
<!-- 5 -->
<g id="node6" class="node">
<title>5</title>
<polygon fill="#4ea7e8" stroke="black" points="267.5,-53 165.5,-53 165.5,0 267.5,0 267.5,-53"/>
<text text-anchor="middle" x="216.5" y="-37.8" font-family="Helvetica,sans-Serif" font-size="14.00">gini = 0.172</text>
<text text-anchor="middle" x="216.5" y="-22.8" font-family="Helvetica,sans-Serif" font-size="14.00">samples = 21</text>
<text text-anchor="middle" x="216.5" y="-7.8" font-family="Helvetica,sans-Serif" font-size="14.00">value = [2, 19]</text>
</g>
<!-- 3&#45;&gt;5 -->
<g id="edge5" class="edge">
<title>3&#45;&gt;5</title>
<path fill="none" stroke="black" d="M216.5,-88.95C216.5,-80.72 216.5,-71.85 216.5,-63.48"/>
<polygon fill="black" stroke="black" points="220,-63.24 216.5,-53.24 213,-63.24 220,-63.24"/>
</g>
<!-- 7 -->
<g id="node8" class="node">
<title>7</title>
<polygon fill="#fdf5ef" stroke="black" points="425.5,-53 285.5,-53 285.5,0 425.5,0 425.5,-53"/>
<text text-anchor="middle" x="355.5" y="-37.8" font-family="Helvetica,sans-Serif" font-size="14.00">gini = 0.499</text>
<text text-anchor="middle" x="355.5" y="-22.8" font-family="Helvetica,sans-Serif" font-size="14.00">samples = 9069</text>
<text text-anchor="middle" x="355.5" y="-7.8" font-family="Helvetica,sans-Serif" font-size="14.00">value = [4726, 4343]</text>
</g>
<!-- 6&#45;&gt;7 -->
<g id="edge7" class="edge">
<title>6&#45;&gt;7</title>
<path fill="none" stroke="black" d="M418.57,-88.95C409.09,-79.71 398.79,-69.67 389.31,-60.44"/>
<polygon fill="black" stroke="black" points="391.52,-57.71 381.92,-53.24 386.64,-62.72 391.52,-57.71"/>
</g>
<!-- 8 -->
<g id="node9" class="node">
<title>8</title>
<polygon fill="#f8fcfe" stroke="black" points="583,-53 444,-53 444,0 583,0 583,-53"/>
<text text-anchor="middle" x="513.5" y="-37.8" font-family="Helvetica,sans-Serif" font-size="14.00">gini = 0.5</text>
<text text-anchor="middle" x="513.5" y="-22.8" font-family="Helvetica,sans-Serif" font-size="14.00">samples = 5131</text>
<text text-anchor="middle" x="513.5" y="-7.8" font-family="Helvetica,sans-Serif" font-size="14.00">value = [2520, 2611]</text>
</g>
<!-- 6&#45;&gt;8 -->
<g id="edge8" class="edge">
<title>6&#45;&gt;8</title>
<path fill="none" stroke="black" d="M473.83,-88.95C479.5,-80.17 485.64,-70.66 491.35,-61.82"/>
<polygon fill="black" stroke="black" points="494.4,-63.54 496.89,-53.24 488.52,-59.74 494.4,-63.54"/>
</g>
<!-- 10 -->
<g id="node11" class="node">
<title>10</title>
<polygon fill="#fefcfb" stroke="black" points="886.5,-157 724.5,-157 724.5,-89 886.5,-89 886.5,-157"/>
<text text-anchor="middle" x="805.5" y="-141.8" font-family="Helvetica,sans-Serif" font-size="14.00">RSI &lt;= 43.772</text>
<text text-anchor="middle" x="805.5" y="-126.8" font-family="Helvetica,sans-Serif" font-size="14.00">gini = 0.5</text>
<text text-anchor="middle" x="805.5" y="-111.8" font-family="Helvetica,sans-Serif" font-size="14.00">samples = 3557</text>
<text text-anchor="middle" x="805.5" y="-96.8" font-family="Helvetica,sans-Serif" font-size="14.00">value = [1798.0, 1759.0]</text>
</g>
<!-- 9&#45;&gt;10 -->
<g id="edge10" class="edge">
<title>9&#45;&gt;10</title>
<path fill="none" stroke="black" d="M864.93,-192.88C857.24,-183.98 848.84,-174.24 840.84,-164.96"/>
<polygon fill="black" stroke="black" points="843.41,-162.58 834.23,-157.3 838.11,-167.16 843.41,-162.58"/>
</g>
<!-- 13 -->
<g id="node14" class="node">
<title>13</title>
<polygon fill="#fbeadd" stroke="black" points="1060,-157 905,-157 905,-89 1060,-89 1060,-157"/>
<text text-anchor="middle" x="982.5" y="-141.8" font-family="Helvetica,sans-Serif" font-size="14.00">Volatility &lt;= 0.017</text>
<text text-anchor="middle" x="982.5" y="-126.8" font-family="Helvetica,sans-Serif" font-size="14.00">gini = 0.496</text>
<text text-anchor="middle" x="982.5" y="-111.8" font-family="Helvetica,sans-Serif" font-size="14.00">samples = 40934</text>
<text text-anchor="middle" x="982.5" y="-96.8" font-family="Helvetica,sans-Serif" font-size="14.00">value = [22360, 18574]</text>
</g>
<!-- 9&#45;&gt;13 -->
<g id="edge13" class="edge">
<title>9&#45;&gt;13</title>
<path fill="none" stroke="black" d="M922.4,-192.88C930.17,-183.98 938.67,-174.24 946.76,-164.96"/>
<polygon fill="black" stroke="black" points="949.51,-167.14 953.44,-157.3 944.23,-162.53 949.51,-167.14"/>
</g>
<!-- 11 -->
<g id="node12" class="node">
<title>11</title>
<polygon fill="#fcf0e8" stroke="black" points="741.5,-53 601.5,-53 601.5,0 741.5,0 741.5,-53"/>
<text text-anchor="middle" x="671.5" y="-37.8" font-family="Helvetica,sans-Serif" font-size="14.00">gini = 0.498</text>
<text text-anchor="middle" x="671.5" y="-22.8" font-family="Helvetica,sans-Serif" font-size="14.00">samples = 2266</text>
<text text-anchor="middle" x="671.5" y="-7.8" font-family="Helvetica,sans-Serif" font-size="14.00">value = [1203, 1063]</text>
</g>
<!-- 10&#45;&gt;11 -->
<g id="edge11" class="edge">
<title>10&#45;&gt;11</title>
<path fill="none" stroke="black" d="M758.63,-88.95C744.88,-79.25 729.89,-68.68 716.27,-59.07"/>
<polygon fill="black" stroke="black" points="718.18,-56.14 707.99,-53.24 714.15,-61.86 718.18,-56.14"/>
</g>
<!-- 12 -->
<g id="node13" class="node">
<title>12</title>
<polygon fill="#e2f1fb" stroke="black" points="885,-53 760,-53 760,0 885,0 885,-53"/>
<text text-anchor="middle" x="822.5" y="-37.8" font-family="Helvetica,sans-Serif" font-size="14.00">gini = 0.497</text>
<text text-anchor="middle" x="822.5" y="-22.8" font-family="Helvetica,sans-Serif" font-size="14.00">samples = 1291</text>
<text text-anchor="middle" x="822.5" y="-7.8" font-family="Helvetica,sans-Serif" font-size="14.00">value = [595, 696]</text>
</g>
<!-- 10&#45;&gt;12 -->
<g id="edge12" class="edge">
<title>10&#45;&gt;12</title>
<path fill="none" stroke="black" d="M811.45,-88.95C812.94,-80.62 814.56,-71.65 816.08,-63.2"/>
<polygon fill="black" stroke="black" points="819.54,-63.7 817.87,-53.24 812.65,-62.46 819.54,-63.7"/>
</g>
<!-- 14 -->
<g id="node15" class="node">
<title>14</title>
<polygon fill="#f3c4a2" stroke="black" points="1028,-53 903,-53 903,0 1028,0 1028,-53"/>
<text text-anchor="middle" x="965.5" y="-37.8" font-family="Helvetica,sans-Serif" font-size="14.00">gini = 0.452</text>
<text text-anchor="middle" x="965.5" y="-22.8" font-family="Helvetica,sans-Serif" font-size="14.00">samples = 434</text>
<text text-anchor="middle" x="965.5" y="-7.8" font-family="Helvetica,sans-Serif" font-size="14.00">value = [284, 150]</text>
</g>
<!-- 13&#45;&gt;14 -->
<g id="edge14" class="edge">
<title>13&#45;&gt;14</title>
<path fill="none" stroke="black" d="M976.55,-88.95C975.06,-80.62 973.44,-71.65 971.92,-63.2"/>
<polygon fill="black" stroke="black" points="975.35,-62.46 970.13,-53.24 968.46,-63.7 975.35,-62.46"/>
</g>
<!-- 15 -->
<g id="node16" class="node">
<title>15</title>
<polygon fill="#fbeade" stroke="black" points="1223,-53 1046,-53 1046,0 1223,0 1223,-53"/>
<text text-anchor="middle" x="1134.5" y="-37.8" font-family="Helvetica,sans-Serif" font-size="14.00">gini = 0.496</text>
<text text-anchor="middle" x="1134.5" y="-22.8" font-family="Helvetica,sans-Serif" font-size="14.00">samples = 40500</text>
<text text-anchor="middle" x="1134.5" y="-7.8" font-family="Helvetica,sans-Serif" font-size="14.00">value = [22076.0, 18424.0]</text>
</g>
<!-- 13&#45;&gt;15 -->
<g id="edge15" class="edge">
<title>13&#45;&gt;15</title>
<path fill="none" stroke="black" d="M1035.66,-88.95C1051.55,-79.07 1068.91,-68.28 1084.59,-58.53"/>
<polygon fill="black" stroke="black" points="1086.46,-61.49 1093.1,-53.24 1082.76,-55.54 1086.46,-61.49"/>
</g>
<!-- 17 -->
<g id="node18" class="node">
<title>17</title>
<polygon fill="#dbedfa" stroke="black" points="1625.5,-261 1485.5,-261 1485.5,-193 1625.5,-193 1625.5,-261"/>
<text text-anchor="middle" x="1555.5" y="-245.8" font-family="Helvetica,sans-Serif" font-size="14.00">Volatility &lt;= 0.101</text>
<text text-anchor="middle" x="1555.5" y="-230.8" font-family="Helvetica,sans-Serif" font-size="14.00">gini = 0.495</text>
<text text-anchor="middle" x="1555.5" y="-215.8" font-family="Helvetica,sans-Serif" font-size="14.00">samples = 6209</text>
<text text-anchor="middle" x="1555.5" y="-200.8" font-family="Helvetica,sans-Serif" font-size="14.00">value = [2795, 3414]</text>
</g>
<!-- 16&#45;&gt;17 -->
<g id="edge17" class="edge">
<title>16&#45;&gt;17</title>
<path fill="none" stroke="black" d="M1555.5,-296.88C1555.5,-288.78 1555.5,-279.98 1555.5,-271.47"/>
<polygon fill="black" stroke="black" points="1559,-271.3 1555.5,-261.3 1552,-271.3 1559,-271.3"/>
</g>
<!-- 24 -->
<g id="node25" class="node">
<title>24</title>
<polygon fill="#fcfeff" stroke="black" points="2078,-261 1923,-261 1923,-193 2078,-193 2078,-261"/>
<text text-anchor="middle" x="2000.5" y="-245.8" font-family="Helvetica,sans-Serif" font-size="14.00">ADX &lt;= 30.94</text>
<text text-anchor="middle" x="2000.5" y="-230.8" font-family="Helvetica,sans-Serif" font-size="14.00">gini = 0.5</text>
<text text-anchor="middle" x="2000.5" y="-215.8" font-family="Helvetica,sans-Serif" font-size="14.00">samples = 27361</text>
<text text-anchor="middle" x="2000.5" y="-200.8" font-family="Helvetica,sans-Serif" font-size="14.00">value = [13589, 13772]</text>
</g>
<!-- 16&#45;&gt;24 -->
<g id="edge24" class="edge">
<title>16&#45;&gt;24</title>
<path fill="none" stroke="black" d="M1633.01,-312.23C1710.98,-294.36 1831.02,-266.85 1912.52,-248.17"/>
<polygon fill="black" stroke="black" points="1913.79,-251.47 1922.76,-245.82 1912.23,-244.64 1913.79,-251.47"/>
</g>
<!-- 18 -->
<g id="node19" class="node">
<title>18</title>
<polygon fill="#d2e9f9" stroke="black" points="1559,-157 1362,-157 1362,-89 1559,-89 1559,-157"/>
<text text-anchor="middle" x="1460.5" y="-141.8" font-family="Helvetica,sans-Serif" font-size="14.00">Rolling VWAP/Close &lt;= 1.003</text>
<text text-anchor="middle" x="1460.5" y="-126.8" font-family="Helvetica,sans-Serif" font-size="14.00">gini = 0.492</text>
<text text-anchor="middle" x="1460.5" y="-111.8" font-family="Helvetica,sans-Serif" font-size="14.00">samples = 4634</text>
<text text-anchor="middle" x="1460.5" y="-96.8" font-family="Helvetica,sans-Serif" font-size="14.00">value = [2019, 2615]</text>
</g>
<!-- 17&#45;&gt;18 -->
<g id="edge18" class="edge">
<title>17&#45;&gt;18</title>
<path fill="none" stroke="black" d="M1524.66,-192.88C1516.28,-183.89 1507.11,-174.04 1498.39,-164.68"/>
<polygon fill="black" stroke="black" points="1500.89,-162.23 1491.51,-157.3 1495.77,-167 1500.89,-162.23"/>
</g>
<!-- 21 -->
<g id="node22" class="node">
<title>21</title>
<polygon fill="#f9fcfe" stroke="black" points="1724,-157 1577,-157 1577,-89 1724,-89 1724,-157"/>
<text text-anchor="middle" x="1650.5" y="-141.8" font-family="Helvetica,sans-Serif" font-size="14.00">ADX &lt;= 29.601</text>
<text text-anchor="middle" x="1650.5" y="-126.8" font-family="Helvetica,sans-Serif" font-size="14.00">gini = 0.5</text>
<text text-anchor="middle" x="1650.5" y="-111.8" font-family="Helvetica,sans-Serif" font-size="14.00">samples = 1575</text>
<text text-anchor="middle" x="1650.5" y="-96.8" font-family="Helvetica,sans-Serif" font-size="14.00">value = [776.0, 799.0]</text>
</g>
<!-- 17&#45;&gt;21 -->
<g id="edge21" class="edge">
<title>17&#45;&gt;21</title>
<path fill="none" stroke="black" d="M1586.34,-192.88C1594.72,-183.89 1603.89,-174.04 1612.61,-164.68"/>
<polygon fill="black" stroke="black" points="1615.23,-167 1619.49,-157.3 1610.11,-162.23 1615.23,-167"/>
</g>
<!-- 19 -->
<g id="node20" class="node">
<title>19</title>
<polygon fill="#d6ebfa" stroke="black" points="1403.5,-53 1241.5,-53 1241.5,0 1403.5,0 1403.5,-53"/>
<text text-anchor="middle" x="1322.5" y="-37.8" font-family="Helvetica,sans-Serif" font-size="14.00">gini = 0.493</text>
<text text-anchor="middle" x="1322.5" y="-22.8" font-family="Helvetica,sans-Serif" font-size="14.00">samples = 4249</text>
<text text-anchor="middle" x="1322.5" y="-7.8" font-family="Helvetica,sans-Serif" font-size="14.00">value = [1881.0, 2368.0]</text>
</g>
<!-- 18&#45;&gt;19 -->
<g id="edge19" class="edge">
<title>18&#45;&gt;19</title>
<path fill="none" stroke="black" d="M1412.23,-88.95C1398.07,-79.25 1382.63,-68.68 1368.61,-59.07"/>
<polygon fill="black" stroke="black" points="1370.31,-56 1360.08,-53.24 1366.36,-61.77 1370.31,-56"/>
</g>
<!-- 20 -->
<g id="node21" class="node">
<title>20</title>
<polygon fill="#a8d4f4" stroke="black" points="1547,-53 1422,-53 1422,0 1547,0 1547,-53"/>
<text text-anchor="middle" x="1484.5" y="-37.8" font-family="Helvetica,sans-Serif" font-size="14.00">gini = 0.46</text>
<text text-anchor="middle" x="1484.5" y="-22.8" font-family="Helvetica,sans-Serif" font-size="14.00">samples = 385</text>
<text text-anchor="middle" x="1484.5" y="-7.8" font-family="Helvetica,sans-Serif" font-size="14.00">value = [138, 247]</text>
</g>
<!-- 18&#45;&gt;20 -->
<g id="edge20" class="edge">
<title>18&#45;&gt;20</title>
<path fill="none" stroke="black" d="M1468.89,-88.95C1471.01,-80.62 1473.29,-71.65 1475.43,-63.2"/>
<polygon fill="black" stroke="black" points="1478.89,-63.79 1477.96,-53.24 1472.11,-62.07 1478.89,-63.79"/>
</g>
<!-- 22 -->
<g id="node23" class="node">
<title>22</title>
<polygon fill="#fcefe6" stroke="black" points="1690,-53 1565,-53 1565,0 1690,0 1690,-53"/>
<text text-anchor="middle" x="1627.5" y="-37.8" font-family="Helvetica,sans-Serif" font-size="14.00">gini = 0.498</text>
<text text-anchor="middle" x="1627.5" y="-22.8" font-family="Helvetica,sans-Serif" font-size="14.00">samples = 887</text>
<text text-anchor="middle" x="1627.5" y="-7.8" font-family="Helvetica,sans-Serif" font-size="14.00">value = [473, 414]</text>
</g>
<!-- 21&#45;&gt;22 -->
<g id="edge22" class="edge">
<title>21&#45;&gt;22</title>
<path fill="none" stroke="black" d="M1642.46,-88.95C1640.43,-80.62 1638.25,-71.65 1636.19,-63.2"/>
<polygon fill="black" stroke="black" points="1639.53,-62.13 1633.76,-53.24 1632.73,-63.78 1639.53,-62.13"/>
</g>
<!-- 23 -->
<g id="node24" class="node">
<title>23</title>
<polygon fill="#d5eaf9" stroke="black" points="1833,-53 1708,-53 1708,0 1833,0 1833,-53"/>
<text text-anchor="middle" x="1770.5" y="-37.8" font-family="Helvetica,sans-Serif" font-size="14.00">gini = 0.493</text>
<text text-anchor="middle" x="1770.5" y="-22.8" font-family="Helvetica,sans-Serif" font-size="14.00">samples = 688</text>
<text text-anchor="middle" x="1770.5" y="-7.8" font-family="Helvetica,sans-Serif" font-size="14.00">value = [303, 385]</text>
</g>
<!-- 21&#45;&gt;23 -->
<g id="edge23" class="edge">
<title>21&#45;&gt;23</title>
<path fill="none" stroke="black" d="M1692.47,-88.95C1704.55,-79.43 1717.71,-69.07 1729.72,-59.62"/>
<polygon fill="black" stroke="black" points="1732.13,-62.17 1737.82,-53.24 1727.8,-56.67 1732.13,-62.17"/>
</g>
<!-- 25 -->
<g id="node26" class="node">
<title>25</title>
<polygon fill="#fffdfd" stroke="black" points="2078,-157 1923,-157 1923,-89 2078,-89 2078,-157"/>
<text text-anchor="middle" x="2000.5" y="-141.8" font-family="Helvetica,sans-Serif" font-size="14.00">Volatility &lt;= 0.069</text>
<text text-anchor="middle" x="2000.5" y="-126.8" font-family="Helvetica,sans-Serif" font-size="14.00">gini = 0.5</text>
<text text-anchor="middle" x="2000.5" y="-111.8" font-family="Helvetica,sans-Serif" font-size="14.00">samples = 20568</text>
<text text-anchor="middle" x="2000.5" y="-96.8" font-family="Helvetica,sans-Serif" font-size="14.00">value = [10348, 10220]</text>
</g>
<!-- 24&#45;&gt;25 -->
<g id="edge25" class="edge">
<title>24&#45;&gt;25</title>
<path fill="none" stroke="black" d="M2000.5,-192.88C2000.5,-184.78 2000.5,-175.98 2000.5,-167.47"/>
<polygon fill="black" stroke="black" points="2004,-167.3 2000.5,-157.3 1997,-167.3 2004,-167.3"/>
</g>
<!-- 28 -->
<g id="node29" class="node">
<title>28</title>
<polygon fill="#eef6fd" stroke="black" points="2318.5,-157 2178.5,-157 2178.5,-89 2318.5,-89 2318.5,-157"/>
<text text-anchor="middle" x="2248.5" y="-141.8" font-family="Helvetica,sans-Serif" font-size="14.00">Volatility &lt;= 0.178</text>
<text text-anchor="middle" x="2248.5" y="-126.8" font-family="Helvetica,sans-Serif" font-size="14.00">gini = 0.499</text>
<text text-anchor="middle" x="2248.5" y="-111.8" font-family="Helvetica,sans-Serif" font-size="14.00">samples = 6793</text>
<text text-anchor="middle" x="2248.5" y="-96.8" font-family="Helvetica,sans-Serif" font-size="14.00">value = [3241, 3552]</text>
</g>
<!-- 24&#45;&gt;28 -->
<g id="edge28" class="edge">
<title>24&#45;&gt;28</title>
<path fill="none" stroke="black" d="M2078.29,-194.01C2107.13,-182.14 2139.86,-168.68 2168.86,-156.75"/>
<polygon fill="black" stroke="black" points="2170.22,-159.98 2178.14,-152.94 2167.56,-153.51 2170.22,-159.98"/>
</g>
<!-- 26 -->
<g id="node27" class="node">
<title>26</title>
<polygon fill="#fcfdff" stroke="black" points="1991.5,-53 1851.5,-53 1851.5,0 1991.5,0 1991.5,-53"/>
<text text-anchor="middle" x="1921.5" y="-37.8" font-family="Helvetica,sans-Serif" font-size="14.00">gini = 0.5</text>
<text text-anchor="middle" x="1921.5" y="-22.8" font-family="Helvetica,sans-Serif" font-size="14.00">samples = 15049</text>
<text text-anchor="middle" x="1921.5" y="-7.8" font-family="Helvetica,sans-Serif" font-size="14.00">value = [7463, 7586]</text>
</g>
<!-- 25&#45;&gt;26 -->
<g id="edge26" class="edge">
<title>25&#45;&gt;26</title>
<path fill="none" stroke="black" d="M1972.87,-88.95C1965.3,-79.89 1957.09,-70.07 1949.49,-60.99"/>
<polygon fill="black" stroke="black" points="1952.11,-58.66 1943.02,-53.24 1946.74,-63.15 1952.11,-58.66"/>
</g>
<!-- 27 -->
<g id="node28" class="node">
<title>27</title>
<polygon fill="#fdf4ee" stroke="black" points="2149.5,-53 2009.5,-53 2009.5,0 2149.5,0 2149.5,-53"/>
<text text-anchor="middle" x="2079.5" y="-37.8" font-family="Helvetica,sans-Serif" font-size="14.00">gini = 0.499</text>
<text text-anchor="middle" x="2079.5" y="-22.8" font-family="Helvetica,sans-Serif" font-size="14.00">samples = 5519</text>
<text text-anchor="middle" x="2079.5" y="-7.8" font-family="Helvetica,sans-Serif" font-size="14.00">value = [2885, 2634]</text>
</g>
<!-- 25&#45;&gt;27 -->
<g id="edge27" class="edge">
<title>25&#45;&gt;27</title>
<path fill="none" stroke="black" d="M2028.13,-88.95C2035.7,-79.89 2043.91,-70.07 2051.51,-60.99"/>
<polygon fill="black" stroke="black" points="2054.26,-63.15 2057.98,-53.24 2048.89,-58.66 2054.26,-63.15"/>
</g>
<!-- 29 -->
<g id="node30" class="node">
<title>29</title>
<polygon fill="#eaf5fc" stroke="black" points="2329.5,-53 2167.5,-53 2167.5,0 2329.5,0 2329.5,-53"/>
<text text-anchor="middle" x="2248.5" y="-37.8" font-family="Helvetica,sans-Serif" font-size="14.00">gini = 0.498</text>
<text text-anchor="middle" x="2248.5" y="-22.8" font-family="Helvetica,sans-Serif" font-size="14.00">samples = 6439</text>
<text text-anchor="middle" x="2248.5" y="-7.8" font-family="Helvetica,sans-Serif" font-size="14.00">value = [3041.0, 3398.0]</text>
</g>
<!-- 28&#45;&gt;29 -->
<g id="edge29" class="edge">
<title>28&#45;&gt;29</title>
<path fill="none" stroke="black" d="M2248.5,-88.95C2248.5,-80.72 2248.5,-71.85 2248.5,-63.48"/>
<polygon fill="black" stroke="black" points="2252,-63.24 2248.5,-53.24 2245,-63.24 2252,-63.24"/>
</g>
<!-- 30 -->
<g id="node31" class="node">
<title>30</title>
<polygon fill="#f9e2d1" stroke="black" points="2473,-53 2348,-53 2348,0 2473,0 2473,-53"/>
<text text-anchor="middle" x="2410.5" y="-37.8" font-family="Helvetica,sans-Serif" font-size="14.00">gini = 0.492</text>
<text text-anchor="middle" x="2410.5" y="-22.8" font-family="Helvetica,sans-Serif" font-size="14.00">samples = 354</text>
<text text-anchor="middle" x="2410.5" y="-7.8" font-family="Helvetica,sans-Serif" font-size="14.00">value = [200, 154]</text>
</g>
<!-- 28&#45;&gt;30 -->
<g id="edge30" class="edge">
<title>28&#45;&gt;30</title>
<path fill="none" stroke="black" d="M2305.16,-88.95C2322.33,-78.93 2341.11,-67.98 2358,-58.13"/>
<polygon fill="black" stroke="black" points="2359.76,-61.15 2366.64,-53.09 2356.24,-55.1 2359.76,-61.15"/>
</g>
</g>
</svg>
